<svg xmlns="http://www.w3.org/2000/svg" viewBox="0 0 32 32" width="512" height="512" fill="none">
    <rect width="32" height="32" rx="6" fill="#ffffff" />
    <path d="M16 28C16 28 9 23 3 23V15C9 15 16 20 16 20C16 20 23 15 29 15V23C23 23 16 28 16 28Z" fill="#FF6B8B" />
    <circle cx="16" cy="9" r="3" fill="#FFA089" />
    <path d="M16 13.5C11.5 13.5 9.5 18 9.5 22C9.5 23.5 16 26 16 26C16 26 22.5 23.5 22.5 22C22.5 18 20.5 13.5 16 13.5Z" fill="#FFA089" />
    <polygon points="16,3 10,5.5 16,8 22,5.5" fill="#FF6B8B" />
    <path d="M22 5.5V9" stroke="#FF6B8B" strokeWidth="1.5" />
</svg>
