<svg xmlns="http://www.w3.org/2000/svg" viewBox="0 0 32 32" width="512" height="512" fill="none">
    <rect width="32" height="32" rx="10" fill="#ffffff" />
    <rect x="1" y="1" width="30" height="30" rx="9" fill="none" stroke="#FFA089" stroke-width="1.5" opacity="0.8" />
    <rect x="3" y="3" width="26" height="26" rx="8" fill="none" stroke="#FF6B8B" stroke-width="0.5" opacity="0.5" />
    
    <path d="M16 29C16 29 8 24 2 24V16C8 16 16 21 16 21C16 21 24 16 30 16V24C24 24 16 29 16 29Z" fill="#FF6B8B" />
    <path d="M4 22.5C9 22.5 14.5 26.5 14.5 26.5M28 22.5C23 22.5 17.5 26.5 17.5 26.5" stroke="#FFFFFF" stroke-width="1" stroke-linecap="round" opacity="0.3" />
    <path d="M5 20.5C9.5 20.5 14.5 24 14.5 24M27 20.5C22.5 20.5 17.5 24 17.5 24" stroke="#FFFFFF" stroke-width="1" stroke-linecap="round" opacity="0.2" />
    <path d="M6 9 L6.5 11 L8.5 11.5 L6.5 12 L6 14 L5.5 12 L3.5 11.5 L5.5 11 Z" fill="#FFA089" opacity="0.6" />
    <path d="M26 12 L26.5 13.5 L28 14 L26.5 14.5 L26 16 L25.5 14.5 L24 14 L25.5 13.5 Z" fill="#FF6B8B" opacity="0.7" />
    <circle cx="16" cy="11" r="3.5" fill="#FFA089" />
    <path d="M16 15C11 15 9 19.5 9 24C9 26 16 28.5 16 28.5C16 28.5 23 26 23 24C23 19.5 21 15 16 15Z" fill="#FFA089" />
    <path d="M16 15 C13 18 13 22 16 24 C19 22 19 18 16 15Z" fill="#FFFFFF" opacity="0.15" />
    <polygon points="16,3 7,7 16,11 25,7" fill="#FF6B8B" />
    <polygon points="7,7 16,11 25,7 16,9" fill="#000000" opacity="0.15" />
    <ellipse cx="16" cy="7" rx="1.5" ry="1" fill="#FFFFFF" opacity="0.4" />
    <path d="M16 7 Q24 7 24.5 10 V14" stroke="#FF6B8B" stroke-width="1" fill="none" stroke-linecap="round" />
    <polygon points="24,14 25,14 25.5,16.5 23.5,16.5" fill="#FF6B8B" />
</svg>
